# xmcd CD database file
#
# Track frame offsets:
#	150
#	22000
#	38072
#	57055
#	75885
#	95065
#	110570
#	133262
#	152372
#	168297
#
# Disc length: 2580 seconds
#
# Revision: 7
# Processed by: cddbd v1.5PL3 Copyright (c) Steve Scherf et al.
# Submitted via: CDex 1.51
#
DISCID=720a120a
DTITLE=MANIC STREET PREACHERS - Gold Against The Soul [CD1]
DYEAR=1993
DGENRE=Rock
TTITLE0=Sleepflower
TTITLE1=From Despair To Where
TTITLE2=La Tristesse Durera (Scream To A Sigh)
TTITLE3=Yourself
TTITLE4=Life Becoming A Landslide
TTITLE5=Drug Drug Druggy
TTITLE6=Roses In The Hospital
TTITLE7=Nostalgic Pushead
TTITLE8=Symphony Of Tourette
TTITLE9=Gold Against The Soul
EXTD=YEAR: 1993
EXTT0=
EXTT1=
EXTT2=
EXTT3=
EXTT4=
EXTT5=
EXTT6=
EXTT7=
EXTT8=
EXTT9=
PLAYORDER=
